<svg version="1.1" id="Layer_1" xmlns="http://www.w3.org/2000/svg" xmlns:xlink="http://www.w3.org/1999/xlink" x="0px" y="0px"
	 width="100%" viewBox="0 0 219 230" enable-background="new 0 0 219 230" xml:space="preserve">
<path fill="#020202" opacity="1.000000" stroke="none" 
	d="
M1.000000,222.000000 
	C1.000000,220.611115 1.000000,219.222214 1.270084,217.192230 
	C2.232643,215.052505 2.831533,213.501877 3.631373,212.062927 
	C20.632164,181.477402 37.590958,150.868073 54.766132,120.380669 
	C56.656681,117.024773 56.404514,114.658104 54.623756,111.474403 
	C36.663445,79.364220 18.852741,47.170353 1.000000,15.000000 
	C1.000000,13.611111 1.000000,12.222222 1.284964,10.219736 
	C2.561144,4.955828 6.238313,2.936520 10.000000,1.000000 
	C11.714396,1.000000 13.428792,1.000000 15.637146,1.352457 
	C17.190218,2.174197 18.281826,2.581945 19.303806,3.121556 
	C83.356903,36.941952 147.428818,70.727005 211.383621,104.732361 
	C214.765076,106.530312 217.150757,110.201088 220.000000,113.000000 
	C220.000000,114.714394 220.000000,116.428795 219.684494,118.718582 
	C216.537781,122.123817 214.183578,125.849648 210.803772,127.649010 
	C160.611298,154.370819 110.269669,180.812271 59.995075,207.380127 
	C45.279037,215.156891 30.662271,223.121506 16.000000,231.000000 
	C14.285604,231.000000 12.571208,231.000000 10.232794,230.714233 
	C4.991246,229.404312 2.909556,225.790070 1.000000,222.000000 
M79.617142,171.092590 
	C114.162361,152.856888 148.707596,134.621170 183.987503,115.997643 
	C136.306625,90.822624 89.497986,66.108139 42.689346,41.393654 
	C54.515110,64.334465 66.683601,86.424316 79.095039,108.376816 
	C82.136017,113.755493 82.013649,118.473961 79.006203,123.796989 
	C66.624504,145.711929 54.466404,167.753189 42.226082,189.748001 
	C42.380741,190.021942 42.535397,190.295883 42.690052,190.569824 
	C54.782543,184.198547 66.875031,177.827271 79.617142,171.092590 
z"/>
<path fill="#FEFEFE" opacity="1.000000" stroke="none" 
	d="
M220.000000,112.531342 
	C217.150757,110.201088 214.765076,106.530312 211.383621,104.732361 
	C147.428818,70.727005 83.356903,36.941952 19.303806,3.121556 
	C18.281826,2.581945 17.190218,2.174197 16.065552,1.352457 
	C83.905746,1.000000 151.811493,1.000000 220.000000,1.000000 
	C220.000000,38.020416 220.000000,75.041550 220.000000,112.531342 
z"/>
<path fill="#FEFEFE" opacity="1.000000" stroke="none" 
	d="
M16.468658,231.000000 
	C30.662271,223.121506 45.279037,215.156891 59.995075,207.380127 
	C110.269669,180.812271 160.611298,154.370819 210.803772,127.649010 
	C214.183578,125.849648 216.537781,122.123817 219.684494,119.146988 
	C220.000000,156.281586 220.000000,193.563187 220.000000,231.000000 
	C152.312515,231.000000 84.624916,231.000000 16.468658,231.000000 
z"/>
<path fill="#FEFEFE" opacity="1.000000" stroke="none" 
	d="
M1.000000,15.468657 
	C18.852741,47.170353 36.663445,79.364220 54.623756,111.474403 
	C56.404514,114.658104 56.656681,117.024773 54.766132,120.380669 
	C37.590958,150.868073 20.632164,181.477402 3.631373,212.062927 
	C2.831533,213.501877 2.232643,215.052505 1.270084,216.775574 
	C1.000000,149.979111 1.000000,82.958206 1.000000,15.468657 
z"/>
<path fill="#E9E9E9" opacity="1.000000" stroke="none" 
	d="
M9.508951,1.000000 
	C6.238313,2.936520 2.561144,4.955828 1.284964,9.803070 
	C1.000000,7.082645 1.000000,4.165290 1.000000,1.000000 
	C3.670005,1.000000 6.343954,1.000000 9.508951,1.000000 
z"/>
<path fill="#E9E9E9" opacity="1.000000" stroke="none" 
	d="
M1.000000,222.491058 
	C2.909556,225.790070 4.991246,229.404312 9.804388,230.714233 
	C7.082646,231.000000 4.165292,231.000000 1.000000,231.000000 
	C1.000000,228.330002 1.000000,225.656052 1.000000,222.491058 
z"/>
<path fill="#FDFDFD" opacity="1.000000" stroke="none" 
	d="
M79.292328,171.274292 
	C66.875031,177.827271 54.782543,184.198547 42.690052,190.569824 
	C42.535397,190.295883 42.380741,190.021942 42.226082,189.748001 
	C54.466404,167.753189 66.624504,145.711929 79.006203,123.796989 
	C82.013649,118.473961 82.136017,113.755493 79.095039,108.376816 
	C66.683601,86.424316 54.515110,64.334465 42.689346,41.393654 
	C89.497986,66.108139 136.306625,90.822624 183.987503,115.997643 
	C148.707596,134.621170 114.162361,152.856888 79.292328,171.274292 
z"/>
</svg>