<svg xmlns="http://www.w3.org/2000/svg" version="1.1" xmlns:xlink="http://www.w3.org/1999/xlink" xmlns:svgjs="http://svgjs.dev/svgjs" width="128" height="128" viewBox="0 0 128 128"><g transform="matrix(0.8046875,0,0,0.8046875,12.760752631578946,12.760752631578946)"><svg viewBox="0 0 95 95" data-background-color="#ffffff" preserveAspectRatio="xMidYMid meet" height="128" width="128" xmlns="http://www.w3.org/2000/svg" xmlns:xlink="http://www.w3.org/1999/xlink"><g id="tight-bounds" transform="matrix(1,0,0,1,-0.24049999999999727,-0.24049999999999727)"><svg viewBox="0 0 95.481 95.481" height="95.481" width="95.481"><g><svg viewBox="0 0 95.481 95.481" height="95.481" width="95.481"><g><svg viewBox="0 0 95.481 95.481" height="95.481" width="95.481"><g id="textblocktransform"><svg viewBox="0 0 95.481 95.481" height="95.481" width="95.481" id="textblock"><g><svg viewBox="0 0 95.481 95.481" height="95.481" width="95.481"><g><svg viewBox="0 0 95.481 95.481" height="95.481" width="95.481"><g><svg xmlns="http://www.w3.org/2000/svg" xmlns:xlink="http://www.w3.org/1999/xlink" version="1.1" x="0" y="0" viewBox="5 5 90 90" style="enable-background:new 0 0 100 100;" xml:space="preserve" height="95.481" width="95.481" class="icon-icon-0" data-fill-palette-color="accent" id="icon-0"><g fill="#111111" data-fill-palette-color="accent"><path d="M70.13 39.598h-4.296c-0.54-5.745-4.151-10.598-9.167-12.926l2.033-5.18c0.302-0.771-0.077-1.642-0.849-1.944-0.772-0.303-1.642 0.077-1.944 0.849l-2.072 5.279c-1.231-0.306-2.511-0.487-3.836-0.487-1.327 0-2.61 0.181-3.843 0.489l-2.072-5.28c-0.303-0.771-1.175-1.152-1.944-0.849-0.771 0.303-1.151 1.173-0.849 1.944l2.034 5.183c-5.012 2.329-8.62 7.18-9.16 12.923H29.87c-6.108 0-11.078 4.97-11.078 11.078s4.969 11.078 11.078 11.078h4.767c1.68 6.338 7.167 11.138 13.864 11.768v5.534c0 0.829 0.671 1.5 1.5 1.5s1.5-0.671 1.5-1.5v-5.534c6.697-0.63 12.184-5.43 13.864-11.768h4.767c6.108 0 11.078-4.97 11.078-11.078S76.239 39.598 70.13 39.598zM50 28.188c7.119 0 12.91 5.791 12.91 12.91v1.667h-2.576c-0.829 0-1.5 0.671-1.5 1.5s0.671 1.5 1.5 1.5h2.576v3.411H37.09v-3.411h17.744c0.829 0 1.5-0.671 1.5-1.5s-0.671-1.5-1.5-1.5H37.09v-1.667C37.09 33.979 42.881 28.188 50 28.188zM34.09 58.754h-4.22c-4.454 0-8.078-3.624-8.078-8.078s3.624-8.078 8.078-8.078h4.22v15.09V58.754zM50 70.598c-6.815 0-12.399-5.312-12.865-12.011h5.698c0.829 0 1.5-0.671 1.5-1.5s-0.671-1.5-1.5-1.5H37.09v-3.411h25.82v3.411H48.833c-0.829 0-1.5 0.671-1.5 1.5s0.671 1.5 1.5 1.5h14.032C62.399 65.286 56.815 70.598 50 70.598zM70.13 58.754h-4.22v-1.066-15.09h4.22c4.454 0 8.078 3.624 8.078 8.078S74.584 58.754 70.13 58.754z" fill="#000000" data-fill-palette-color="accent"></path><path d="M50 5C25.187 5 5 25.187 5 50s20.187 45 45 45 45-20.187 45-45S74.813 5 50 5zM50 92C26.841 92 8 73.159 8 50S26.841 8 50 8s42 18.841 42 42S73.159 92 50 92z" fill="#000000" data-fill-palette-color="accent"></path></g></svg></g></svg></g></svg></g></svg></g></svg></g><g></g></svg></g><defs></defs></svg><rect width="95.481" height="95.481" fill="none" stroke="none" visibility="hidden"></rect></g></svg></g></svg>